<svg xmlns="http://www.w3.org/2000/svg" width="56" height="52" viewBox="0 0 56 52">
  <g id="Group_18" data-name="Group 18" transform="translate(-1587 -57)">
    <path id="Rectangle_3" data-name="Rectangle 3" d="M0,0H56a0,0,0,0,1,0,0V33a6,6,0,0,1-6,6H6a6,6,0,0,1-6-6V0A0,0,0,0,1,0,0Z" transform="translate(1587 70)" fill="#e7eced"/>
    <path id="Path_4" data-name="Path 4" d="M41.5,5H.5V18h56V5Z" transform="translate(1586.5 52)" fill="#aba17d"/>
    <circle id="Ellipse_5" data-name="Ellipse 5" cx="2" cy="2" r="2" transform="translate(1604 59)" fill="#f7f5f6"/>
    <circle id="Ellipse_6" data-name="Ellipse 6" cx="2" cy="2" r="2" transform="translate(1610 59)" fill="#f7f5f6"/>
    <circle id="Ellipse_7" data-name="Ellipse 7" cx="2" cy="2" r="2" transform="translate(1616 59)" fill="#f7f5f6"/>
    <circle id="Ellipse_8" data-name="Ellipse 8" cx="2" cy="2" r="2" transform="translate(1622 59)" fill="#f7f5f6"/>
  </g>
</svg>
