<svg xmlns="http://www.w3.org/2000/svg" width="45.342" height="41.22" viewBox="0 0 45.342 41.22">
  <g id="language" transform="translate(0 -21.333)">
    <g id="Group_977" data-name="Group 977" transform="translate(0 21.333)">
      <g id="Group_976" data-name="Group 976" transform="translate(0 0)">
        <path id="Path_2186" data-name="Path 2186" d="M24.464,48.281h0l-5.235-5.173.062-.062a36.108,36.108,0,0,0,7.646-13.458h6.039V25.455H18.549V21.333H14.427v4.122H0v4.1H23.022A32.551,32.551,0,0,1,16.488,40.6a32.5,32.5,0,0,1-4.761-6.9H7.605a36.2,36.2,0,0,0,6.142,9.4L3.267,53.454,6.183,56.37,16.488,46.065l6.41,6.41Z" transform="translate(0 -21.333)" fill="#fff"/>
        <path id="Path_2187" data-name="Path 2187" d="M248.063,192h-4.122l-9.275,24.732h4.122l2.319-6.183h9.79l2.319,6.183h4.122Zm-5.41,14.427L246,197.493l3.349,8.934Z" transform="translate(-211.995 -175.512)" fill="#fff"/>
      </g>
    </g>
  </g>
</svg>
