<svg xmlns="http://www.w3.org/2000/svg" width="75" height="75" viewBox="0 0 75 75">
  <g id="Group_21" data-name="Group 21" transform="translate(-138 -4512)">
    <rect id="Rectangle_614" data-name="Rectangle 614" width="75" height="75" rx="15" transform="translate(138 4512)" fill="#07215b"/>
    <g id="black-back-closed-envelope-shape" transform="translate(156.913 4534.815)">
      <g id="Group_12" data-name="Group 12" transform="translate(0 0)">
        <path id="Path_2121" data-name="Path 2121" d="M49.657,334.881a3.177,3.177,0,0,0,2.175-.821L41.3,323.528l-.729.524q-1.182.871-1.919,1.359a11.82,11.82,0,0,1-1.96,1,5.975,5.975,0,0,1-2.282.508h-.041a5.973,5.973,0,0,1-2.282-.508,11.782,11.782,0,0,1-1.96-1q-.737-.487-1.919-1.359c-.22-.161-.463-.338-.727-.527L16.946,334.06a3.178,3.178,0,0,0,2.176.821Z" transform="translate(-15.802 -305.673)" fill="#fff"/>
        <path id="Path_2122" data-name="Path 2122" d="M2.1,200.36a11,11,0,0,1-2.1-1.8v16.024L9.283,205.3Q6.5,203.352,2.1,200.36Z" transform="translate(0 -189.137)" fill="#fff"/>
        <path id="Path_2123" data-name="Path 2123" d="M420.514,200.36q-4.238,2.869-7.2,4.94l9.279,9.28V198.555A11.447,11.447,0,0,1,420.514,200.36Z" transform="translate(-385.414 -189.137)" fill="#fff"/>
        <path id="Path_2124" data-name="Path 2124" d="M33.86,59.013H3.325A2.962,2.962,0,0,0,.867,60.091a4.185,4.185,0,0,0-.861,2.7A4.847,4.847,0,0,0,1.147,65.62a10.291,10.291,0,0,0,2.427,2.4q.705.5,4.253,2.956c1.277.885,2.387,1.656,3.341,2.321.813.567,1.515,1.057,2.094,1.465l.31.221.572.412q.674.488,1.12.789t1.079.674a6.293,6.293,0,0,0,1.193.56,3.3,3.3,0,0,0,1.037.187h.041a3.3,3.3,0,0,0,1.037-.187,6.279,6.279,0,0,0,1.193-.56q.633-.374,1.079-.674t1.12-.789l.572-.412.31-.221,2.1-1.459,7.609-5.283a9.867,9.867,0,0,0,2.531-2.551,5.488,5.488,0,0,0,1.016-3.132,3.346,3.346,0,0,0-3.319-3.319Z" transform="translate(-0.006 -59.013)" fill="#fff"/>
      </g>
    </g>
  </g>
</svg>
