<svg xmlns="http://www.w3.org/2000/svg" width="63.554" height="48.366" viewBox="0 0 63.554 48.366">
  <g id="envelope" transform="translate(0 -57.75)">
    <g id="Group_1" data-name="Group 1" transform="translate(0 57.75)">
      <path id="Path_5" data-name="Path 5" d="M55.8,57.75H7.772A7.778,7.778,0,0,0,0,65.522V98.344a7.778,7.778,0,0,0,7.772,7.772H55.783a7.778,7.778,0,0,0,7.772-7.772V65.535A7.77,7.77,0,0,0,55.8,57.75Zm4.221,40.594a4.226,4.226,0,0,1-4.221,4.221H7.772a4.226,4.226,0,0,1-4.221-4.221V65.535a4.226,4.226,0,0,1,4.221-4.221H55.783A4.226,4.226,0,0,1,60,65.535V98.344Z" transform="translate(0 -57.75)" fill="#80868b"/>
      <path id="Path_6" data-name="Path 6" d="M88.5,125.951l15.543-13.939a1.778,1.778,0,1,0-2.38-2.643L80.231,128.607l-4.182-3.735c-.013-.013-.026-.026-.026-.039a2.631,2.631,0,0,0-.289-.25L58.717,109.356a1.779,1.779,0,0,0-2.367,2.656l15.727,14.057L56.416,140.732a1.782,1.782,0,0,0-.079,2.512,1.816,1.816,0,0,0,1.3.565,1.779,1.779,0,0,0,1.21-.473l15.9-14.873,4.313,3.853a1.771,1.771,0,0,0,2.367-.013l4.432-3.971,15.806,15.017a1.78,1.78,0,0,0,2.512-.066,1.782,1.782,0,0,0-.066-2.512Z" transform="translate(-48.421 -102.176)" fill="#80868b"/>
    </g>
  </g>
</svg>
