<svg xmlns="http://www.w3.org/2000/svg" width="41.485" height="41.483" viewBox="0 0 41.485 41.483">
  <g id="Group_14" data-name="Group 14" transform="translate(-30.518 -60)">
    <path id="Path_2130" data-name="Path 2130" d="M12605.725,7688.333l8.458-8.454v-3.821H12618l1.4-1.4-6.754-6.753h-6.611v8.6l-6.075,6.072Z" transform="translate(-12569.441 -7601.833)" fill="#003197" fill-rule="evenodd"/>
    <path id="Path_2131" data-name="Path 2131" d="M14238.607,7028.34l6.754-6.752v-6.611h-8.6l-6.068-6.076-5.762,5.762,8.459,8.463h3.824v3.821Z" transform="translate(-14179.431 -6948.9)" fill="#aba17d" fill-rule="evenodd"/>
    <path id="Path_2132" data-name="Path 2132" d="M13279.486,9413.967l-8.462-8.461h-3.817v-3.823l-1.4-1.392-6.753,6.751v6.612h8.593l6.077,6.074Z" transform="translate(-13222.464 -9318.245)" fill="#0056ff" fill-rule="evenodd"/>
    <path id="Path_2133" data-name="Path 2133" d="M14998.144,8654.539h6.609v-8.6l6.074-6.066-5.762-5.76-8.459,8.457v3.822h-3.822l-1.395,1.4Z" transform="translate(-14938.824 -8559.126)" fill="#003197" fill-rule="evenodd"/>
  </g>
</svg>
