<svg xmlns="http://www.w3.org/2000/svg" width="75" height="75" viewBox="0 0 75 75">
  <g id="Group_22" data-name="Group 22" transform="translate(-694 -4338)">
    <rect id="Rectangle_615" data-name="Rectangle 615" width="75" height="75" rx="15" transform="translate(694 4338)" fill="#07215b"/>
    <g id="telephone-handle-silhouette" transform="translate(715.522 4359.548)">
      <path id="Path_2120" data-name="Path 2120" d="M31.87,24.74q-.135-.408-1.723-1.2-.43-.25-1.224-.68t-1.44-.794q-.647-.363-1.213-.7-.091-.068-.567-.4a6.373,6.373,0,0,0-.805-.488,1.485,1.485,0,0,0-.646-.158,1.882,1.882,0,0,0-1.133.646A11.041,11.041,0,0,0,21.87,22.37a13.671,13.671,0,0,1-1.2,1.406,1.728,1.728,0,0,1-1.043.646,1.542,1.542,0,0,1-.51-.113c-.2-.076-.359-.14-.465-.192s-.286-.159-.544-.318-.4-.246-.431-.261a23.83,23.83,0,0,1-5.329-3.946A23.818,23.818,0,0,1,8.4,14.263q-.023-.045-.261-.431t-.318-.544a4.915,4.915,0,0,1-.193-.465,1.534,1.534,0,0,1-.113-.51,1.728,1.728,0,0,1,.646-1.043,13.658,13.658,0,0,1,1.406-1.2,11.037,11.037,0,0,0,1.406-1.247,1.882,1.882,0,0,0,.646-1.134,1.481,1.481,0,0,0-.159-.646,6.3,6.3,0,0,0-.488-.805q-.329-.476-.4-.567-.34-.567-.7-1.213T9.08,3.016Q8.65,2.223,8.4,1.791,7.607.2,7.2.068A1.27,1.27,0,0,0,6.722,0a7.471,7.471,0,0,0-1.6.227A8.98,8.98,0,0,0,3.57.7a6.079,6.079,0,0,0-2.4,2.766A8.792,8.792,0,0,0,.01,7.687,8.757,8.757,0,0,0,.089,8.878a9.784,9.784,0,0,0,.284,1.3q.2.726.329,1.077t.465,1.259q.34.907.408,1.111A20.54,20.54,0,0,0,3.457,17.6a33.624,33.624,0,0,0,4.886,6,33.639,33.639,0,0,0,6,4.887,20.572,20.572,0,0,0,3.969,1.882q.2.068,1.111.408t1.259.465q.351.125,1.077.329a9.871,9.871,0,0,0,1.3.284,8.412,8.412,0,0,0,5.409-1.078,6.075,6.075,0,0,0,2.766-2.4,8.931,8.931,0,0,0,.476-1.553,7.455,7.455,0,0,0,.227-1.6A1.264,1.264,0,0,0,31.87,24.74Z" transform="translate(-0.01)" fill="#fff"/>
    </g>
  </g>
</svg>
