<svg xmlns="http://www.w3.org/2000/svg" width="30" height="30" viewBox="0 0 30 30"><defs><style>.a{opacity:0.6;}.b{fill:#fff;}</style></defs><g class="a"><path class="b" d="M15,30A15,15,0,1,0,0,15,15.017,15.017,0,0,0,15,30ZM15,1.5A13.5,13.5,0,1,1,1.5,15,13.516,13.516,0,0,1,15,1.5Z"/><path class="b" d="M127.145,169.755h11.1l-2.906,2.906a.743.743,0,0,0,1.053,1.047l4.172-4.172a.738.738,0,0,0,0-1.047l-4.172-4.172a.741.741,0,1,0-1.047,1.047l2.906,2.906h-11.11a.742.742,0,1,0,0,1.483Z" transform="translate(-118.593 -154.01)"/></g></svg>